<?xml version="1.0" encoding="UTF-8"?>
<svg version="1.1" xmlns="http://www.w3.org/2000/svg" width="32" height="32">
<path d="M0 0 C2.3125 -0.3125 2.3125 -0.3125 5 0 C7.72508509 3.28889579 8.36146791 5.78287443 8 10 C8.99 10.33 9.98 10.66 11 11 C10.67 11.99 10.34 12.98 10 14 C9.34 14 8.68 14 8 14 C8.04125 15.0725 8.0825 16.145 8.125 17.25 C8.0114175 20.65747485 7.78726636 22.20739631 6 25 C4.35 25 2.7 25 1 25 C0.67 24.01 0.34 23.02 0 22 C0.66 21.67 1.32 21.34 2 21 C2.47222764 18.38821958 2.47222764 18.38821958 2.625 15.3125 C2.69976562 14.27738281 2.77453125 13.24226563 2.8515625 12.17578125 C2.99478789 9.11151175 3.02758988 6.06707543 3 3 C2.01 2.67 1.02 2.34 0 2 C0 1.34 0 0.68 0 0 Z " fill="#00EAF9" transform="translate(11,4)"/>
<path d="M0 0 C2 2 2 2 2.265625 4.3125 C2.26046875 5.199375 2.2553125 6.08625 2.25 7 C2.25515625 7.886875 2.2603125 8.77375 2.265625 9.6875 C2 12 2 12 0 14 C-1.32 14 -2.64 14 -4 14 C-4 13.34 -4 12.68 -4 12 C-3.34 11.67 -2.68 11.34 -2 11 C-1.30906104 8.42048126 -1.30906104 8.42048126 -0.875 5.4375 C-0.70742187 4.42558594 -0.53984375 3.41367187 -0.3671875 2.37109375 C-0.24601563 1.58863281 -0.12484375 0.80617188 0 0 Z " fill="#00EDFC" transform="translate(15,14)"/>
<path d="M0 0 C0 0.99 0 1.98 0 3 C-0.66 3 -1.32 3 -2 3 C-1.95875 4.0725 -1.9175 5.145 -1.875 6.25 C-1.9885825 9.65747485 -2.21273364 11.20739631 -4 14 C-5.65 14 -7.3 14 -9 14 C-8.360625 13.690625 -7.72125 13.38125 -7.0625 13.0625 C-4.23191985 10.23191985 -4.51979109 7.94409685 -4.46875 4.05859375 C-4.3140625 3.37925781 -4.159375 2.69992188 -4 2 C-1.96875 0.72265625 -1.96875 0.72265625 0 0 Z " fill="#00A9B3" transform="translate(21,15)"/>
<path d="M0 0 C2.3125 -0.3125 2.3125 -0.3125 5 0 C7.72508509 3.28889579 8.36146791 5.78287443 8 10 C7.34 9.67 6.68 9.34 6 9 C5.375 5.9375 5.375 5.9375 5 3 C4.01 3.495 4.01 3.495 3 4 C2.01 3.34 1.02 2.68 0 2 C0 1.34 0 0.68 0 0 Z " fill="#00C7D3" transform="translate(11,4)"/>
</svg>
